<svg width="44" height="52" viewBox="0 0 47 47" fill="none" xmlns="http://www.w3.org/2000/svg">
<path d="M39.6562 0.734375H10.2812C9.69694 0.734375 9.13657 0.966489 8.72341 1.37966C8.31024 1.79282 8.07812 2.35319 8.07812 2.9375V3.67188H7.34375C6.75944 3.67188 6.19907 3.90399 5.78591 4.31716C5.37274 4.73032 5.14062 5.29069 5.14062 5.875C5.14062 6.45931 5.37274 7.01968 5.78591 7.43285C6.19907 7.84601 6.75944 8.07812 7.34375 8.07812H8.07812V9.54688H7.34375C6.75944 9.54688 6.19907 9.77899 5.78591 10.1922C5.37274 10.6053 5.14062 11.1657 5.14062 11.75C5.14062 12.3343 5.37274 12.8947 5.78591 13.3078C6.19907 13.721 6.75944 13.9531 7.34375 13.9531H8.07812V15.4219H7.34375C6.75944 15.4219 6.19907 15.654 5.78591 16.0672C5.37274 16.4803 5.14062 17.0407 5.14062 17.625C5.14062 18.2093 5.37274 18.7697 5.78591 19.1828C6.19907 19.596 6.75944 19.8281 7.34375 19.8281H8.07812V21.2969H7.34375C6.75944 21.2969 6.19907 21.529 5.78591 21.9422C5.37274 22.3553 5.14062 22.9157 5.14062 23.5C5.14062 24.0843 5.37274 24.6447 5.78591 25.0578C6.19907 25.471 6.75944 25.7031 7.34375 25.7031H8.07812V27.1719H7.34375C6.75944 27.1719 6.19907 27.404 5.78591 27.8172C5.37274 28.2303 5.14062 28.7907 5.14062 29.375C5.14062 29.9593 5.37274 30.5197 5.78591 30.9328C6.19907 31.346 6.75944 31.5781 7.34375 31.5781H8.07812V33.0469H7.34375C6.75944 33.0469 6.19907 33.279 5.78591 33.6922C5.37274 34.1053 5.14062 34.6657 5.14062 35.25C5.14062 35.8343 5.37274 36.3947 5.78591 36.8078C6.19907 37.221 6.75944 37.4531 7.34375 37.4531H8.07812V38.9219H7.34375C6.75944 38.9219 6.19907 39.154 5.78591 39.5672C5.37274 39.9803 5.14062 40.5407 5.14062 41.125C5.14062 41.7093 5.37274 42.2697 5.78591 42.6828C6.19907 43.096 6.75944 43.3281 7.34375 43.3281H8.07812V44.0625C8.07812 44.6468 8.31024 45.2072 8.72341 45.6203C9.13657 46.0335 9.69694 46.2656 10.2812 46.2656H39.6562C40.2406 46.2656 40.8009 46.0335 41.2141 45.6203C41.6273 45.2072 41.8594 44.6468 41.8594 44.0625V2.9375C41.8594 2.35319 41.6273 1.79282 41.2141 1.37966C40.8009 0.966489 40.2406 0.734375 39.6562 0.734375ZM6.60938 5.875C6.60938 5.68023 6.68675 5.49344 6.82447 5.35572C6.96219 5.218 7.14898 5.14062 7.34375 5.14062H10.2812C10.476 5.14062 10.6628 5.218 10.8005 5.35572C10.9383 5.49344 11.0156 5.68023 11.0156 5.875C11.0156 6.06977 10.9383 6.25656 10.8005 6.39428C10.6628 6.532 10.476 6.60938 10.2812 6.60938H7.34375C7.14898 6.60938 6.96219 6.532 6.82447 6.39428C6.68675 6.25656 6.60938 6.06977 6.60938 5.875ZM6.60938 11.75C6.60938 11.5552 6.68675 11.3684 6.82447 11.2307C6.96219 11.093 7.14898 11.0156 7.34375 11.0156H10.2812C10.476 11.0156 10.6628 11.093 10.8005 11.2307C10.9383 11.3684 11.0156 11.5552 11.0156 11.75C11.0156 11.9448 10.9383 12.1316 10.8005 12.2693C10.6628 12.407 10.476 12.4844 10.2812 12.4844H7.34375C7.14898 12.4844 6.96219 12.407 6.82447 12.2693C6.68675 12.1316 6.60938 11.9448 6.60938 11.75ZM6.60938 17.625C6.60938 17.4302 6.68675 17.2434 6.82447 17.1057C6.96219 16.968 7.14898 16.8906 7.34375 16.8906H10.2812C10.476 16.8906 10.6628 16.968 10.8005 17.1057C10.9383 17.2434 11.0156 17.4302 11.0156 17.625C11.0156 17.8198 10.9383 18.0066 10.8005 18.1443C10.6628 18.282 10.476 18.3594 10.2812 18.3594H7.34375C7.14898 18.3594 6.96219 18.282 6.82447 18.1443C6.68675 18.0066 6.60938 17.8198 6.60938 17.625ZM6.60938 23.5C6.60938 23.3052 6.68675 23.1184 6.82447 22.9807C6.96219 22.843 7.14898 22.7656 7.34375 22.7656H10.2812C10.476 22.7656 10.6628 22.843 10.8005 22.9807C10.9383 23.1184 11.0156 23.3052 11.0156 23.5C11.0156 23.6948 10.9383 23.8816 10.8005 24.0193C10.6628 24.157 10.476 24.2344 10.2812 24.2344H7.34375C7.14898 24.2344 6.96219 24.157 6.82447 24.0193C6.68675 23.8816 6.60938 23.6948 6.60938 23.5ZM6.60938 29.375C6.60938 29.1802 6.68675 28.9934 6.82447 28.8557C6.96219 28.718 7.14898 28.6406 7.34375 28.6406H10.2812C10.476 28.6406 10.6628 28.718 10.8005 28.8557C10.9383 28.9934 11.0156 29.1802 11.0156 29.375C11.0156 29.5698 10.9383 29.7566 10.8005 29.8943C10.6628 30.032 10.476 30.1094 10.2812 30.1094H7.34375C7.14898 30.1094 6.96219 30.032 6.82447 29.8943C6.68675 29.7566 6.60938 29.5698 6.60938 29.375ZM6.60938 35.25C6.60938 35.0552 6.68675 34.8684 6.82447 34.7307C6.96219 34.593 7.14898 34.5156 7.34375 34.5156H10.2812C10.476 34.5156 10.6628 34.593 10.8005 34.7307C10.9383 34.8684 11.0156 35.0552 11.0156 35.25C11.0156 35.4448 10.9383 35.6316 10.8005 35.7693C10.6628 35.907 10.476 35.9844 10.2812 35.9844H7.34375C7.14898 35.9844 6.96219 35.907 6.82447 35.7693C6.68675 35.6316 6.60938 35.4448 6.60938 35.25ZM6.60938 41.125C6.60938 40.9302 6.68675 40.7434 6.82447 40.6057C6.96219 40.468 7.14898 40.3906 7.34375 40.3906H10.2812C10.476 40.3906 10.6628 40.468 10.8005 40.6057C10.9383 40.7434 11.0156 40.9302 11.0156 41.125C11.0156 41.3198 10.9383 41.5066 10.8005 41.6443C10.6628 41.782 10.476 41.8594 10.2812 41.8594H7.34375C7.14898 41.8594 6.96219 41.782 6.82447 41.6443C6.68675 41.5066 6.60938 41.3198 6.60938 41.125ZM40.3906 44.0625C40.3906 44.2573 40.3133 44.4441 40.1755 44.5818C40.0378 44.7195 39.851 44.7969 39.6562 44.7969H10.2812C10.0865 44.7969 9.89969 44.7195 9.76197 44.5818C9.62425 44.4441 9.54688 44.2573 9.54688 44.0625V43.3281H10.2812C10.8656 43.3281 11.4259 43.096 11.8391 42.6828C12.2523 42.2697 12.4844 41.7093 12.4844 41.125C12.4844 40.5407 12.2523 39.9803 11.8391 39.5672C11.4259 39.154 10.8656 38.9219 10.2812 38.9219H9.54688V37.4531H10.2812C10.8656 37.4531 11.4259 37.221 11.8391 36.8078C12.2523 36.3947 12.4844 35.8343 12.4844 35.25C12.4844 34.6657 12.2523 34.1053 11.8391 33.6922C11.4259 33.279 10.8656 33.0469 10.2812 33.0469H9.54688V31.5781H10.2812C10.8656 31.5781 11.4259 31.346 11.8391 30.9328C12.2523 30.5197 12.4844 29.9593 12.4844 29.375C12.4844 28.7907 12.2523 28.2303 11.8391 27.8172C11.4259 27.404 10.8656 27.1719 10.2812 27.1719H9.54688V25.7031H10.2812C10.8656 25.7031 11.4259 25.471 11.8391 25.0578C12.2523 24.6447 12.4844 24.0843 12.4844 23.5C12.4844 22.9157 12.2523 22.3553 11.8391 21.9422C11.4259 21.529 10.8656 21.2969 10.2812 21.2969H9.54688V19.8281H10.2812C10.8656 19.8281 11.4259 19.596 11.8391 19.1828C12.2523 18.7697 12.4844 18.2093 12.4844 17.625C12.4844 17.0407 12.2523 16.4803 11.8391 16.0672C11.4259 15.654 10.8656 15.4219 10.2812 15.4219H9.54688V13.9531H10.2812C10.8656 13.9531 11.4259 13.721 11.8391 13.3078C12.2523 12.8947 12.4844 12.3343 12.4844 11.75C12.4844 11.1657 12.2523 10.6053 11.8391 10.1922C11.4259 9.77899 10.8656 9.54688 10.2812 9.54688H9.54688V8.07812H10.2812C10.8656 8.07812 11.4259 7.84601 11.8391 7.43285C12.2523 7.01968 12.4844 6.45931 12.4844 5.875C12.4844 5.29069 12.2523 4.73032 11.8391 4.31716C11.4259 3.90399 10.8656 3.67188 10.2812 3.67188H9.54688V2.9375C9.54688 2.74273 9.62425 2.55594 9.76197 2.41822C9.89969 2.2805 10.0865 2.20312 10.2812 2.20312H39.6562C39.851 2.20312 40.0378 2.2805 40.1755 2.41822C40.3133 2.55594 40.3906 2.74273 40.3906 2.9375V44.0625Z" fill="white"/>
<path d="M14.6875 16.8906H28.6406V18.3594H14.6875V16.8906Z" fill="white"/>
<path d="M30.1094 16.8906H31.5781V18.3594H30.1094V16.8906Z" fill="white"/>
<path d="M33.0469 16.8906H38.1875V18.3594H33.0469V16.8906Z" fill="white"/>
<path d="M14.6875 19.8281H16.1562V21.2969H14.6875V19.8281Z" fill="white"/>
<path d="M16.8906 19.8281H38.1875V21.2969H16.8906V19.8281Z" fill="white"/>
<path d="M14.6875 22.7656H38.1875V24.2344H14.6875V22.7656Z" fill="white"/>
<path d="M14.6875 40.3906H17.625V41.8594H14.6875V40.3906Z" fill="white"/>
<path d="M19.0938 40.3906H38.1875V41.8594H19.0938V40.3906Z" fill="white"/>
<path d="M33.0469 37.4531H38.1875V38.9219H33.0469V37.4531Z" fill="white"/>
<path d="M14.6875 37.4531H31.5781V38.9219H14.6875V37.4531Z" fill="white"/>
<path d="M36.7188 3.67188H16.8906C16.3063 3.67188 15.7459 3.90399 15.3328 4.31716C14.9196 4.73032 14.6875 5.29069 14.6875 5.875V12.4844C14.6875 13.0687 14.9196 13.6291 15.3328 14.0422C15.7459 14.4554 16.3063 14.6875 16.8906 14.6875H36.7188C37.3031 14.6875 37.8634 14.4554 38.2766 14.0422C38.6898 13.6291 38.9219 13.0687 38.9219 12.4844V5.875C38.9219 5.29069 38.6898 4.73032 38.2766 4.31716C37.8634 3.90399 37.3031 3.67188 36.7188 3.67188ZM37.4531 12.4844C37.4531 12.6791 37.3758 12.8659 37.238 13.0037C37.1003 13.1414 36.9135 13.2188 36.7188 13.2188H16.8906C16.6959 13.2188 16.5091 13.1414 16.3713 13.0037C16.2336 12.8659 16.1562 12.6791 16.1562 12.4844V5.875C16.1562 5.68023 16.2336 5.49344 16.3713 5.35572C16.5091 5.218 16.6959 5.14062 16.8906 5.14062H36.7188C36.9135 5.14062 37.1003 5.218 37.238 5.35572C37.3758 5.49344 37.4531 5.68023 37.4531 5.875V12.4844Z" fill="white"/>
</svg>
