<svg width="23" height="23" viewBox="0 0 23 23" fill="none" xmlns="http://www.w3.org/2000/svg">
<g clip-path="url(#clip0)">
<path d="M0.620659 10.0039C0.621185 10.0034 0.621712 10.0028 0.622238 10.0023L10.0044 0.620483C10.4043 0.220398 10.936 0 11.5016 0C12.0671 0 12.5988 0.220222 12.9989 0.620308L22.3762 9.9974C22.3793 10.0006 22.3825 10.0039 22.3857 10.007C23.2069 10.833 23.2055 12.1731 22.3816 12.997C22.0052 13.3736 21.5081 13.5917 20.9766 13.6145C20.955 13.6166 20.9332 13.6176 20.9113 13.6176H20.5374V20.5221C20.5374 21.8884 19.4257 23 18.0591 23H14.3885C14.0165 23 13.7147 22.6984 13.7147 22.3262V16.9131C13.7147 16.2896 13.2076 15.7825 12.5841 15.7825H10.4191C9.7956 15.7825 9.28848 16.2896 9.28848 16.9131V22.3262C9.28848 22.6984 8.98683 23 8.61465 23H4.94404C3.57743 23 2.46579 21.8884 2.46579 20.5221V13.6176H2.11905C1.55367 13.6176 1.02197 13.3974 0.621712 12.9973C-0.203026 12.1721 -0.203377 10.8297 0.620659 10.0039Z" fill="white"/>
</g>
<defs>
<clipPath id="clip0">
<rect width="23" height="23" fill="white" transform="matrix(-1 0 0 1 23 0)"/>
</clipPath>
</defs>
</svg>
