<svg width="100" height="100" viewBox="0 0 100 100" xmlns="http://www.w3.org/2000/svg"><title>hse_logo</title><g fill="none"><path d="M.001 50.092c-.132-27.528 22.085-49.959 49.613-50.091 27.528-.132 49.959 22.085 50.091 49.613.132 27.527-22.085 49.959-49.613 50.091-27.528.132-49.959-22.085-50.091-49.613z" fill="#007AC5"/><path d="M.825 50.087c-.13-27.072 21.72-49.133 48.793-49.262 27.072-.13 49.133 21.72 49.262 48.793.13 27.073-21.72 49.132-48.792 49.262-27.072.13-49.133-21.72-49.262-48.792z" fill="#fff"/><path d="M64.586 9.965c-.167.58-.773.913-1.351.744-.579-.167-.912-.773-.745-1.351.167-.579.773-.912 1.352-.745.579.167.912.773.744 1.351z" fill="#007AC5"/><path d="M50.795 93.059c-.167.578-.773.912-1.352.744-.579-.167-.912-.773-.744-1.351.168-.58.774-.913 1.352-.745.579.168.912.773.744 1.352z" fill="#007AC5"/><path d="M54.861 6.594l.421 1.772-1.159-.123.738-1.649zm2.436 4.974c.153.007.637-.014.423-.177h.073c-.027-.184-.243-.258-.341-.248-.411-.13-.52-.52-.644-.904-.226-.705-.406-1.454-.583-2.12l-.663-2.49c-.106-.405-.286-1.217-.719-.5-.104.171-.291.596-.413.845-.64 1.309-1.248 2.64-1.922 3.932-.088.169-.161.378-.309.502-.255.215-.275.045-.537.125-.161.049-.328.121-.226.32.096.186.559.146.723.159.282.022 1.289.319 1.358-.052.109-.582-.673.12-.271-.838.137-.205.336-1.131.601-1.288.126-.075 1.484.066 1.593.168.099.093.125.476.16.608.094.357.197.713.281 1.073l.072.274-.1.152c.02.19.044.313.335.32.366.048.74.121 1.108.139zm11.51 4.476c.721.387 1.807.61 2.585.284.865-.279 1.547-.885 1.988-1.674l-.064-.036.064.035c1.077-1.946-.035-3.899-1.98-4.67-.353-.14-1.015-.407-1.384-.183-.169.103-.41.672-.472.875-.058.188-.144.428.114.464.201.028.3-.308.41-.409.206-.187.415-.26.703-.254 1.62.032 2.313 1.895 1.824 3.225-.48-.266-.964-.529-1.442-.8-.165-.094-.688-.609-.835-.579-.29.134-.612.582-.767.796-.38.62.699.096.727.092.53.022 1.358.606 1.795.905.289.197.307.119.072.482-.217.335-.48.653-.815.877-.647.433-1.421.396-2.129.02-.588-.312-1.116-.718-.919-1.444.078-.288.126-.704-.318-.391-.212.15-.751.949-.576 1.27.205.484.986.882 1.419 1.115zm9.02 6.324c.147-.354-.58-.494-.127-.823.428-.537.955-1.005 1.441-1.49-.074 1.106-.309 2.703-.01 3.684.044.33.288.644.531.899l.346.346c.292.268.648.319.463-.158l-.298-.526c-.148-.439-.124-.942-.131-1.407-.009-.62.003-1.241.014-1.86l.013-.616c.01-.441.037-.385.476-.386.709-.001 1.419.007 2.128.02.326.006.621.041.92.179.096.044.276.239.383.216.525-.115-.196-.685-.326-.811-.168-.164-.34-.446-.535-.56-.291-.17-.237-.05-.412.097-.158.133.139.098-.203.184-.222.056-.534.018-.758.02l-1.953.031c.395-.394.819-1.036 1.297-1.295.38-.206.273.104.611.104.319 0 .229-.263.132-.429-.19-.325-.713-.722-.997-.997-.22-.212-.742-.475-.536.082.179.483.33.325-.125.785l-1.035 1.033-1.24 1.237c-.27.268-.68.841-1.048.967-.243.083-.498-.226-.673-.061-.273.258.567.834.726 1.015.139.153.742.959.925.518zm10.353 5.287c.743.252 1.38.984 1.48 1.823.137 1.148-.684 2.07-1.634 2.574-.729.386-1.647.639-2.423.225-.956-.51-1.3-1.716-.92-2.698.496-1.263 2.147-2.269 3.498-1.923zm-.278 5.589c1.978-.526 3.374-2.904 2.087-4.7-.277-.942-1.423-1.607-2.336-1.76-1.532-.256-3.139.607-3.732 2.055-.998 2.419 1.457 5.077 3.981 4.405zm.24 6.776c-.125-.094-.054-.421-.311-.39-.204.025-.18.264-.182.323-.01.384.187.892.254 1.287.029.169.04.725.336.705.126-.009.226-.15.143-.227.261-.148-.188-.444.376-.632.502-.168 1.057-.234 1.575-.334.133-.026.538-.168.627-.102.206.15.264 1.361.31 1.599l.287 1.484c-.722.14-1.663.491-2.365.41-.313-.036-.119-.007-.317-.203-.116-.115-.099-.24-.274-.22-.287.108.047 2.175.313 2.284.2.082.282-.096.308-.228.069-.353-.152-.49.238-.584 1.122-.315 2.3-.482 3.445-.702.374-.072.767-.186 1.146-.221.366-.034.318.009.514.219.08.086.196.234.256.217.386-.079.043-.893-.001-1.121-.05-.257-.033-.599-.139-.838-.094-.213-.519-.434-.449-.006.139.469-.168.508-.607.593-.228.044-1.271.398-1.451.261-.072-.054-.089-.459-.106-.544l-.205-1.055-.288-1.485 1.099-.212c.22-.042.475-.137.697-.135.207.002.228.025.389.193.125.13.253.487.446.106.066-.13-.06-.443-.087-.561-.095-.422-.162-.847-.235-1.274-.026-.311-.509-.306-.439.038.477.53-1.015.661-1.207.699-.881.17-1.76.344-2.642.509-.256.049-1.16.367-1.453.147zm1.025 15.692c-1.121-3.465 5.652-4.125 5.271-.498-.268 2.541-4.54 2.621-5.271.498zm-.605-1.65c-.38 1.583.298 3.243 1.82 3.927 1.048.471 2.772.496 3.514-.369 1.075-.771 1.391-2.54 1-3.737-.977-2.993-5.597-2.886-6.334.179zm-.933 9.773c-.143-.08-.404-.159-.481-.294-.113-.197.094-.351.008-.53-.276-.575-.709.749-.805.959-.083.18-.435.888.059.761.142-.037.245-.319.31-.436.988.619 2.173 1.128 3.227 1.687-.782.023-1.563.039-2.304.088-.519.034-1.04.061-1.559.103-.366.029-.871-.007-.67.493.178.441.823.94 1.125 1.283l1.768 2.004c-1.173-.375-2.418-.668-3.556-1.136-.209-.086-.115-.358-.434-.049l-.078.129c-.158.243-.252.592-.367.86-.072.169-.384.694-.056.78.289.076.335-.412.503-.544.328-.258.832.001 1.19.11l2.464.744c.596.18 1.22.445 1.834.554.667.118.411-.36.125-.679l-3.246-3.621 3.36-.17c.566-.029 1.138-.034 1.702-.086.252-.023.835-.189.322-.512-1.475-.843-2.962-1.667-4.443-2.499zm-2.783 14.558c-.321.131-.188.327-.546.134-.32-.173-.643-.58-.92-.829l-1.986-1.79c-.351-.317-.689-.683-1.069-.966-.477-.355-.582-.053-.497.416.338 1.839.64 3.681.883 5.535l-1.494-1.348c-.329-.297-1.433-1.022-1.439-1.464-.002-.142.248-.242.166-.42-.177-.384-.54.131-.667.281-.185.218-1.427 1.358-.819 1.426.197.022.27-.258.426-.305.197-.06.306.058.469.179.724.538 1.374 1.208 2.044 1.813.303.273 1.921 2.076 2.26 1.709.123-.134.025-.403-.001-.544-.09-.48-.169-.961-.249-1.442l-.146-.888c-.168-1.055-.316-2.11-.459-3.169l1.514 1.366.979.882c.107.096.432.316.458.476.035.209-.268.348-.134.562.129.204.317.003.434-.082.227-.164 1.274-1.241 1.156-1.49-.063-.192-.252-.087-.364-.041zm-10.72 9.436c-.195-.059-.31-.416-.396-.559l-.661-1.099c-.504-.836-1.117-1.681-1.508-2.573-.049-.112-.16-.257-.134-.38.028-.132.254-.16.275-.31.031-.219-.126-.269-.326-.235-.212.037-.437.281-.62.393l-.882.505c-.364.14-.098.441.164.415.421-.042.272-.291.59.061.429.476.76 1.198 1.097 1.76-.469-.15-.942-.3-1.42-.421-.837-.267-2.094-.716-2.909-.316-.242.119-.562.274-.768.448-.301.256-.264.48.138.43.264-.033.429-.17.712-.171.413-.001.834.116 1.231.208.498.115.992.249 1.486.378l.86.231c.069.019.427.067.462.128.05.086-.114.478-.141.586-.186.744-.344 1.986-.782 2.629-.044.063-.407.357-.411.458-.009.23.2.319.378.198.303-.195.899-.425 1.141-.687.331-.357-.051-.303-.127-.529-.083-.246.182-.89.239-1.133l.383-1.653.743 1.24c.069.116.303.399.271.554-.046.222-.37.223-.323.482.082.448.912-.246 1.046-.325.064-.038 1.447-.83.747-.881-.032-.044-.44.203-.555.168zm-10.921 5.199c-.126-.072-.131-.24-.171-.365-.153-.485-.245-1-.37-1.494-.197-.777-.435-1.742-.642-2.578-.116-.466-.374-2.06-.885-.909-.758 1.709-1.528 3.408-2.363 5.081-.203-.818-.41-1.634-.608-2.453-.089-.369-.449-1.224-.18-1.553.098-.12.346-.105.307-.316-.062-.33-1.83.156-2.054.276-.423.227-.198.403.097.434.32.034.45-.172.528.215.339 1.043.565 2.13.829 3.195.079.317.32 2.323.802 2.286.402-.12.741-1.403.919-1.793l.371-.81c.449-.971.92-1.931 1.397-2.889l.524 2.109c.115.463.594 1.52.287 1.917-.097.125-.371.095-.305.323.073.254.322.134.476.102.321-.068 1.77-.269 1.709-.654-.081-.34-.476-.015-.669-.125zm-21.906-2.564c-.048.206-.113.92-.275 1.016-.22.131-.822-.284-.968-.441-.209-.223-.339-.523-.386-.823-.08-.511.023-1.233.555-1.464.27-.109 1.348-.071 1.348.385 0 .425-.178.915-.273 1.328zm-1.728 2.999c-.169-.492-.075-1.189.369-1.517l.214-.122c.08.034.72.095.783.21.04.072-.096.412-.114.49l-.341 1.47c-.402 0-.786-.23-.911-.531zm2.505-5.029c-.618-.159-1.2-.394-1.852-.296-1.766.265-2.113 2.393-.755 3.41-.984.681-1.405 2.087-.056 2.737.668.322 1.55.396 2.27.583.088.034.311.009.341-.16.032-.183-.137-.194-.249-.273-.242-.168-.26-.17-.362-.344.193-.184.245-.884.316-1.189l.439-1.899c.074-.316.235-1.741.579-1.94.053-.031.862-.001.42-.36-.249-.207-.779-.19-1.09-.27zm-12.623-4.648c.226-.123.074-.308-.052-.426-.272-.253-.765-.425-1.089-.623-.156-.096-.573-.441-.759-.243-.246.262.245.383.336.537.158.264-.176.69-.312.935-.397.714-.815 1.419-1.224 2.127-.199.344-.854 1.951-1.338 1.588-.046-.034-.25-.025-.302.1-.127.308.588.55.759.646.244.138.507.394.772.471.24.069.614-.132.276-.348-.111-.063-.196-.137-.247-.257.167-.568.653-1.193.954-1.714.51-.882.971-1.86 1.587-2.669.319-.409.292.067.64-.122zm1.634 3.576c-.047.081-.179.413-.271.444-.312.106-.839-.679-.892-.794-.207-.672-.01-1.9.844-1.989.415-.052 1.086.284 1.215.721-.078.535-.635 1.168-.895 1.617zm.831-2.573c-1.109-.638-2.611-.45-3.056.908-.206.631-.002 1.294.424 1.785.272.312.848.474 1.082.788l.088.184c-.002.113-.193.332-.248.429-.194.335-.359.73-.598 1.034-.309.393-.188.095-.538.127-.32.03-.302.229-.097.433.119.118.362.192.514.277.26.145.567.438.842.507.132.033.242.146.368-.02.186-.246-.171-.299-.254-.448-.19-.342.211-.754.388-1.06.42-.726.837-1.453 1.26-2.178.241-.414.464-.936.792-1.293.36-.392.14-.045.563-.103.225-.045.292-.291.038-.437-.537-.294-1.039-.629-1.569-.934zm-12.149-9.36c-.079-.019-.231.025-.346.085-.155.088-.87.508-.806.643l-.058-.047c-.283.261.01.401.23.385.102-.008.36-.195.346-.187.581-.215 1.064.188 1.456.586.779.81 1 2.001.529 3.03-.418.911-1.524 1.862-2.584 1.742-.945-.106-2.11-1.15-2.219-2.114-.054-.482.32-.588.396-.945.051-.236-.158-.411-.367-.239-.386.28-1.192.775-1.04 1.24.078.239.392.543.545.753.4.55.852 1.074 1.417 1.463 1.019.701 2.312.798 3.381.15.492-.298.92-.727 1.231-1.21.165-.257.74-1.394.452-1.64.169-.428-.185-1.224-.421-1.64-.405-.722-1.278-1.846-2.142-2.056zm-4.141-4.472c.282-.112.2.109.472.226.124.054.423.118.296-.15.091-.262-.365-.898-.52-1.229-.372-.8-.749-1.597-1.117-2.398-.447-.975-.905-1.939-1.359-2.917-.186-.4-.327-1.051-.61-1.368-.116-.129-.238-.299-.405-.11-.171.193.163.462.099.66-.117.361-1.64.881-1.862.984l-2.094.975c-.214.1-.671.404-.904.326-.156-.053-.445-.713-.572-.139-.055.248.296.662.396.873.139.295.222.727.459.963.539.363.186-.573.235-.683.153-.342 1.368-.694 1.672-.836l1.524-.709c.401-.186.899-.563 1.322-.58.29-.011.099-.065.263.114.228.247.356.765.498 1.069.065.14.424.673.388.833-.076.335-1.288.687-1.633.849l-1.578.733c-.369.172-1.239.773-1.594.557-.141-.086-.094-.318-.339-.281-.22.033-.153.235-.127.372.044.236.26.505.362.724.094.2.196.749.412.858.322.162.417-.214.286-.35-.14-.485.98-.766 1.304-.917.864-.404 1.875-.82 2.643-1.229.02-.008.719-.343.754-.262.266.561.537 1.146.808 1.731.093.202.139.212.057.344-.141.227-.745.387-1.008.511-1.07.503-2.136 1.061-3.232 1.506-.247.1-.318.118-.525.002-.143-.08-.377-.503-.481-.034-.064.289.515 1.177.651 1.46.077.16.142.467.386.415.37-.08.005-.424.038-.601.071-.378.7-.498 1.026-.65 1.168-.542 2.324-1.154 3.531-1.607l.08-.036zm-7.344-14.032l-1.78-.317 1.619-.836.161 1.152zm2.771 1.573c.055.101.001.247.077.339.178.217.484.108.387-.229-.032-.244-.049-1.599-.341-1.73-.338-.152-.28.329-.345.479-.415.043-.903-.114-1.329-.195-.574-.109-.576-.069-.656-.644-.055-.394-.246-.866-.004-1.131.257-.281 1.053-.659 1.425-.781l.237-.124.129.083c.323-.128.247-.358.21-.669-.023-.196-.011-1.31-.359-1.293-.309.015-.181.397-.211.58-.136.37-.578.581-.9.769-.773.448-1.557.877-2.339 1.309l-1.131.624c-.2.11-1.168.49-1.196.794-.046.488 2.822.826 3.122.891l2.526.54c.278.047.558.135.698.39zm-5.607-14.793c.085-.057.512.063.61.076.447.055 1.323-.013 1.712.212.616.356-.385 1.373-.794 1.52-.799.286-1.864-.066-1.74-1.06.025-.152.084-.661.212-.747zm2.594 2.039c.665.492 1.518 1.047 1.953 1.768.186.308.11.541.192.84.034.122.053.273.206.272.294-.001.283-.6.306-.826.112-1.073-.535-1.631-1.341-2.29-.243-.199-.796-.487-.875-.776-.241-.88.582-.583 1.098-.511.359.05.914.025 1.044.388.035.098-.054.661.2.498.287.161.328-1.166.354-1.342.012-.084.206-1.32-.274-.844-.231.354-.075.408-.63.384-.798-.035-1.6-.177-2.394-.275l-1.565-.193c-.429-.053-1.02-.012-.912-.581.01-.127-.036-.211-.168-.253l-.021.07c-.09-.163-.188.027-.255.19-.114.279-.059.695-.108.998-.109.673-.332 1.403-.096 2.035.422 1.556 2.428 1.726 3.287.447zm16.416-25.783c-.279-.175-.391.204-.634.181-.119-.012-.314-.257-.391-.341-.418-.454-.779-.967-1.157-1.454 1.166.225 2.447.52 3.628.466.461-.038 1.178-.422 1.486-.816.244-.313.161-.486-.217-.39l-.4.195c-.695.219-1.606-.007-2.307-.098-.425-.055-.851-.111-1.276-.172-.189-.027-.455-.007-.617-.09-.223-.114-.116.088-.187-.191-.034-.135.046-.385.063-.52.08-.638.162-1.279.255-1.915.036-.249.076-.491.197-.717.084-.156.463-.451.303-.65-.224-.28-.785.369-.949.495-.142.109-.401.212-.497.359-.205.317-.025.216.107.4l.128.143c.086.223-.074.828-.099 1.06l-.182 1.717-.703-.902c-.123-.159-.346-.351-.423-.542-.115-.286-.028-.178.059-.442.074-.226.223-.516-.245-.37-.302.094-.672.545-.934.736-.127.092-.74.436-.516.682.235.257.507-.253.815-.078.4.228.878 1.117 1.157 1.475.627.803 1.542 1.744 1.94 2.6.039.153-.543.921.184.602.286-.125.58-.477.841-.67.232-.171.793-.432.571-.756m7.891-6.126c-1.303-.429-2.389-2.208-2.005-3.566.343-1.214 1.772-1.807 2.906-1.33 1.116.468 1.869 1.877 1.869 3.059 0 1.407-1.501 2.255-2.77 1.838zm-.811-5.533c-1.575.635-2.487 2.251-2.033 3.925.504 1.858 2.397 2.981 4.239 2.303 1.757-.647 2.703-2.501 2.063-4.293-.647-1.822-2.469-2.661-4.269-1.935zm15.649 2.213c-.722-.239-1.164-1.516-1.505-2.128-.568-1.021-1.081-2.119-1.712-3.102-.446-.696-.609-.052-.702.383l-.757 3.54c-.142.666-.181 2.058-.948 2.128-.099.01-.22.104-.205.241.084.344 1.872.075 2.077-.148.219-.356-.341-.237-.436-.322-.146-.131.015-.589.053-.789.231-1.207.447-2.365.662-3.579.608 1.174 1.178 2.252 1.801 3.393.098.18.276.4.327.6.013.048-.126.141-.087.221.108.222.292.159.496.149.279-.013 1.447.004 1.47-.404-.104-.321-.319-.111-.533-.181zm-37.471 18.934c.125-.027.334.14.451.211.602.361 1.192.745 1.787 1.118.658.413 1.378.789 1.982 1.274l.101.076c.338.385.022.092.103.45.099.436.319.311.524-.024.233-.382.46-.766.698-1.145.603-.964 1.312-1.982 1.854-2.923.585-1.016 1.25-2.001 1.88-2.999.123-.161.037-.429-.223-.376-.157.032-.327.364-.376.419-.309.027-.67-.277-.928-.432-.555-.335-1.102-.684-1.652-1.029-.57-.357-1.374-.677-1.841-1.153-.289-.295-.099-.138-.098-.428 0-.154.139-.383-.18-.37-.269.011-.501.663-.608.834-.134.214-.68.76-.536 1.043.181.357.497-.231.697-.325.583.239 1.189.716 1.74 1.061.825.516 1.753 1.136 2.501 1.599.235.225-.09.469-.247.719-.148.237-.58 1.259-.843 1.344-.211.069-.958-.521-1.157-.644l-1.474-.921c-.502-.315-1.123-.598-1.572-.983-.108-.092-.203-.163-.215-.277-.021-.188.294-.335.034-.518-.255-.178-1.455 1.545-1.17 1.834.271.156.27-.148.439-.227.294-.139.658.207.927.376l2.073 1.297c.361.227 1.075.561 1.347.878.199.232.139.068.034.361-.092.258-.325.519-.47.751-.142.227-.304.646-.512.818l-.167.084c-.233.007-.748-.424-.955-.552l-1.6-1c-.177-.11-1.446-1.056-1.63-.933.062-.15-.12-.11-.14-.283l.1-.253c-.041-.329-.124-.417-.423-.152-.22.195-.36.618-.527.875-.069.105-.748.941-.209.941.236 0 .261-.367.48-.414z" fill="#007AC5"/><path d="M10.467 36.868c-.168.579-.773.912-1.352.744-.579-.167-.912-.773-.745-1.351.168-.579.773-.912 1.352-.745.579.168.912.773.745 1.352z" fill="#007AC5"/><path d="M35.576 73.329l1.479-2.877v-40.197h6.523v40.153h4.611v-15.683h6.02v15.667h5.218v-7.139c0-4.326-.224-10.344-5.093-13.452l2.836-1.042c5.869 2.183 8.807 7.88 8.807 15.387v6.308l1.478 2.875h-31.88zm11.613-47.842l.244.004h2.457c4.851 0 6.882.854 9.18 2.625 3.342 2.621 3.87 6.424 3.87 8.328 0 2.361-.723 4.854-2.493 6.886-1.312 1.573-3.593 3.858-8.066 4.392-3.058.371-5.317.234-6.444.112v-2.401c.502.068 1.241.135 2.248.135 3.043 0 5.199-1.523 6.51-3.164 1.49-1.809 1.802-3.513 1.867-5.036h-8.372v-2.359h8.298c-.212-1.594-.821-2.812-1.81-4.009-1.902-2.361-4.591-2.754-6.363-2.754l-11.955-.005-1.411-2.755h12.241zm-33.062 24.366c0 19.728 15.998 35.726 35.725 35.726 19.727 0 35.727-15.999 35.727-35.726 0-19.728-16-35.725-35.727-35.725-19.727 0-35.725 15.998-35.725 35.725z" fill="#007AC5"/></g></svg>