<svg width="44" height="52" viewBox="0 0 44 40" fill="none" xmlns="http://www.w3.org/2000/svg">
<g clip-path="url(#clip0)">
<path d="M35.0975 15.5352C35.4499 15.5352 35.7355 15.2728 35.7355 14.9492V9.26704C35.7355 8.94345 35.4499 8.68111 35.0975 8.68111H33.8086C33.4562 8.68111 33.1705 8.94345 33.1705 9.26704C33.1705 9.59064 33.4562 9.85298 33.8086 9.85298H34.4595V14.9492C34.4595 15.2728 34.7452 15.5352 35.0975 15.5352Z" fill="white"/>
<path d="M18.6841 15.5352C19.0365 15.5352 19.3222 15.2728 19.3222 14.9492V9.26704C19.3222 8.94345 19.0365 8.68111 18.6841 8.68111H17.3952C17.0428 8.68111 16.7571 8.94345 16.7571 9.26704C16.7571 9.59064 17.0428 9.85298 17.3952 9.85298H18.0461V14.9492C18.0461 15.2728 18.3318 15.5352 18.6841 15.5352Z" fill="white"/>
<path d="M31.697 10.8457C31.697 9.65209 30.6396 8.681 29.3399 8.681C28.0402 8.681 26.9829 9.65209 26.9829 10.8457V13.3705C26.9829 14.5641 28.0402 15.5351 29.3399 15.5351C30.6396 15.5351 31.697 14.5641 31.697 13.3705V10.8457ZM30.421 13.3705C30.421 13.9179 29.936 14.3633 29.3399 14.3633C28.7438 14.3633 28.259 13.9179 28.259 13.3705V10.8457C28.259 10.2983 28.7438 9.85288 29.3399 9.85288C29.936 9.85288 30.421 10.2983 30.421 10.8457V13.3705Z" fill="white"/>
<path d="M23.1527 8.68111C21.8531 8.68111 20.7957 9.6522 20.7957 10.8458V13.3706C20.7957 14.5642 21.8531 15.5352 23.1527 15.5352C24.4524 15.5352 25.5098 14.5642 25.5098 13.3706V10.8458C25.5098 9.65212 24.4524 8.68111 23.1527 8.68111ZM24.2337 13.3705C24.2337 13.9179 23.7487 14.3633 23.1527 14.3633C22.5566 14.3633 22.0716 13.9179 22.0716 13.3705V10.8457C22.0716 10.2983 22.5566 9.8529 23.1527 9.8529C23.7487 9.8529 24.2337 10.2983 24.2337 10.8457V13.3705Z" fill="white"/>
<path d="M8.45808 8.68111H7.16903C6.81667 8.68111 6.53101 8.94345 6.53101 9.26704C6.53101 9.59064 6.81667 9.85298 7.16903 9.85298H7.81998V14.9492C7.81998 15.2728 8.10564 15.5352 8.458 15.5352C8.81036 15.5352 9.09602 15.2728 9.09602 14.9492V9.26704C9.09611 8.94345 8.81044 8.68111 8.45808 8.68111Z" fill="white"/>
<path d="M15.2837 10.8457C15.2837 9.65209 14.2263 8.681 12.9266 8.681C11.6269 8.681 10.5695 9.65209 10.5695 10.8457V13.3705C10.5695 14.5641 11.6269 15.5351 12.9266 15.5351C14.2263 15.5351 15.2837 14.5641 15.2837 13.3705V10.8457ZM14.0076 13.3705C14.0076 13.9179 13.5226 14.3633 12.9266 14.3633C12.3305 14.3633 11.8455 13.9179 11.8455 13.3705V10.8457C11.8455 10.2983 12.3305 9.85288 12.9266 9.85288C13.5226 9.85288 14.0076 10.2983 14.0076 10.8457V13.3705Z" fill="white"/>
<path d="M30.6286 23.7427C30.9809 23.7427 31.2666 23.4804 31.2666 23.1568V17.4746C31.2666 17.151 30.9809 16.8887 30.6286 16.8887H29.3396C28.9873 16.8887 28.7016 17.151 28.7016 17.4746C28.7016 17.7982 28.9873 18.0605 29.3396 18.0605H29.9906V23.1568C29.9906 23.4804 30.2762 23.7427 30.6286 23.7427Z" fill="white"/>
<path d="M14.2153 23.7427C14.5676 23.7427 14.8533 23.4804 14.8533 23.1568V17.4746C14.8533 17.151 14.5676 16.8887 14.2153 16.8887H12.9263C12.5739 16.8887 12.2883 17.151 12.2883 17.4746C12.2883 17.7982 12.5739 18.0605 12.9263 18.0605H13.5772V23.1568C13.5772 23.4804 13.8628 23.7427 14.2153 23.7427Z" fill="white"/>
<path d="M24.8714 16.8887C23.5717 16.8887 22.5143 17.8598 22.5143 19.0534V21.5781C22.5143 22.7717 23.5717 23.7428 24.8714 23.7428C26.1711 23.7428 27.2285 22.7717 27.2285 21.5781V19.0534C27.2284 17.8597 26.1711 16.8887 24.8714 16.8887ZM25.9524 21.5781C25.9524 22.1255 25.4674 22.5709 24.8713 22.5709C24.2752 22.5709 23.7902 22.1255 23.7902 21.5781V19.0533C23.7902 18.5059 24.2752 18.0605 24.8713 18.0605C25.4674 18.0605 25.9524 18.5059 25.9524 19.0533V21.5781Z" fill="white"/>
<path d="M16.3264 21.5781C16.3264 22.7717 17.3838 23.7428 18.6835 23.7428C19.9832 23.7428 21.0406 22.7717 21.0406 21.5781V19.0533C21.0406 17.8597 19.9832 16.8886 18.6835 16.8886C17.3838 16.8886 16.3264 17.8597 16.3264 19.0533V21.5781ZM17.6024 19.0533C17.6024 18.5059 18.0874 18.0605 18.6835 18.0605C19.2795 18.0605 19.7645 18.5059 19.7645 19.0533V21.5781C19.7645 22.1255 19.2795 22.5709 18.6835 22.5709C18.0874 22.5709 17.6024 22.1255 17.6024 21.5781V19.0533Z" fill="white"/>
<path d="M8.45806 16.8887C7.15837 16.8887 6.10095 17.8598 6.10095 19.0534V21.5781C6.10095 22.7717 7.15837 23.7428 8.45806 23.7428C9.75775 23.7428 10.8152 22.7717 10.8152 21.5781V19.0534C10.8151 17.8597 9.75775 16.8887 8.45806 16.8887ZM9.53903 21.5781C9.53903 22.1255 9.05405 22.5709 8.45797 22.5709C7.86189 22.5709 7.37691 22.1255 7.37691 21.5781V19.0533C7.37691 18.5059 7.86189 18.0605 8.45797 18.0605C9.05405 18.0605 9.53903 18.5059 9.53903 19.0533V21.5781Z" fill="white"/>
<path d="M32.7405 21.5781C32.7405 22.7717 33.7979 23.7428 35.0976 23.7428C36.3973 23.7428 37.4547 22.7717 37.4547 21.5781V19.0533C37.4547 17.8597 36.3973 16.8886 35.0976 16.8886C33.7979 16.8886 32.7405 17.8597 32.7405 19.0533V21.5781ZM34.0165 19.0533C34.0165 18.5059 34.5015 18.0605 35.0976 18.0605C35.6937 18.0605 36.1786 18.5059 36.1786 19.0533V21.5781C36.1786 22.1255 35.6937 22.5709 35.0976 22.5709C34.5015 22.5709 34.0165 22.1255 34.0165 21.5781V19.0533Z" fill="white"/>
<path d="M6.02378 4.41953H3.38833C3.03597 4.41953 2.75031 4.68187 2.75031 5.00546V27.4187C2.75031 27.7423 3.03597 28.0047 3.38833 28.0047H40.1673C40.5196 28.0047 40.8053 27.7423 40.8053 27.4187V5.00546C40.8053 4.68187 40.5196 4.41953 40.1673 4.41953H9.00121C8.64885 4.41953 8.36319 4.68187 8.36319 5.00546C8.36319 5.32906 8.64885 5.5914 9.00121 5.5914H39.5292V26.8328H4.02635V5.5914H6.02378C6.37613 5.5914 6.6618 5.32906 6.6618 5.00546C6.6618 4.68187 6.37613 4.41953 6.02378 4.41953Z" fill="white"/>
<path d="M41.1991 1.89375H2.35642C1.05707 1.89375 0 2.86492 0 4.0586V28.3656C0 29.5589 1.05707 30.5297 2.35642 30.5297H16.0482L15.3882 34.4086H13.8723C13.5199 34.4086 13.2343 34.6709 13.2343 34.9945V37.5203C13.2343 37.8439 13.5199 38.1063 13.8723 38.1063H29.6833C30.0356 38.1063 30.3213 37.8439 30.3213 37.5203V34.9945C30.3213 34.6709 30.0356 34.4086 29.6833 34.4086H28.1673L27.5074 30.5297H34.0763C34.4286 30.5297 34.7143 30.2673 34.7143 29.9438C34.7143 29.6202 34.4286 29.3578 34.0763 29.3578H2.35642C1.76068 29.3578 1.27604 28.9127 1.27604 28.3656V4.0586C1.27604 3.5111 1.76068 3.06563 2.35642 3.06563H41.1991C41.7949 3.06563 42.2795 3.5111 42.2795 4.0586V28.3656C42.2795 28.9127 41.7949 29.3578 41.1991 29.3578H37.0537C36.7013 29.3578 36.4157 29.6202 36.4157 29.9438C36.4157 30.2673 36.7013 30.5297 37.0537 30.5297H41.1991C42.4985 30.5297 43.5556 29.5589 43.5556 28.3656V4.0586C43.5556 2.86492 42.4985 1.89375 41.1991 1.89375ZM26.8758 34.4086H25.7582C25.4058 34.4086 25.1202 34.6709 25.1202 34.9945C25.1202 35.3181 25.4058 35.5805 25.7582 35.5805H29.0453V36.9344H14.5103V35.5805H22.7807C23.1331 35.5805 23.4188 35.3181 23.4188 34.9945C23.4188 34.6709 23.1331 34.4086 22.7807 34.4086H16.6797L17.3397 30.5297H26.2159L26.8758 34.4086Z" fill="white"/>
</g>
<defs>
<clipPath id="clip0">
<rect width="43.5556" height="40" fill="white"/>
</clipPath>
</defs>
</svg>
