<svg width="44" height="52" viewBox="0 0 44 44" fill="none" xmlns="http://www.w3.org/2000/svg">
<path d="M23.8332 33C23.8332 34.0125 23.0124 34.8332 22 34.8332C20.9875 34.8332 20.1667 34.0125 20.1667 33C20.1667 31.9875 20.9875 31.1668 22 31.1668C23.0124 31.1668 23.8332 31.9875 23.8332 33Z" fill="white"/>
<path d="M22 44C9.86871 44 0 34.1313 0 22C0 9.86871 9.86871 0 22 0C34.1313 0 44 9.86871 44 22C44 34.1313 34.1313 44 22 44ZM22 2.75C11.385 2.75 2.75 11.385 2.75 22C2.75 32.615 11.385 41.25 22 41.25C32.615 41.25 41.25 32.615 41.25 22C41.25 11.385 32.615 2.75 22 2.75Z" fill="white"/>
<path d="M22 27.0418C21.241 27.0418 20.625 26.4258 20.625 25.6668V23.8151C20.625 22.0698 21.7325 20.5058 23.3787 19.9247C25.5695 19.153 27.0418 16.8189 27.0418 15.125C27.0418 12.3438 24.7812 10.0832 22 10.0832C19.2188 10.0832 16.9583 12.3438 16.9583 15.125C16.9583 15.884 16.3423 16.5 15.5833 16.5C14.8242 16.5 14.2083 15.884 14.2083 15.125C14.2083 10.8295 17.7028 7.33322 22 7.33322C26.2972 7.33322 29.7918 10.8295 29.7918 15.125C29.7918 18.1832 27.3772 21.43 24.2935 22.519C23.7436 22.7113 23.375 23.2337 23.375 23.8168V25.6668C23.375 26.4258 22.759 27.0418 22 27.0418V27.0418Z" fill="white"/>
</svg>
